<?xml version="1.0" encoding="utf-8"?>
<!-- Generator: Adobe Illustrator 14.0.0, SVG Export Plug-In . SVG Version: 6.00 Build 43363)  -->
<!DOCTYPE svg PUBLIC "-//W3C//DTD SVG 1.1//EN" "http://www.w3.org/Graphics/SVG/1.1/DTD/svg11.dtd">
<svg version="1.1" id="Layer_1" xmlns="http://www.w3.org/2000/svg" xmlns:xlink="http://www.w3.org/1999/xlink" x="0px" y="0px"
	 width="132px" height="98px" viewBox="0 0 132 98" enable-background="new 0 0 132 98" xml:space="preserve">
<path fill="#2F4152" d="M131.111,35.673L102,50.508v6.808c0,10.168-15.893,18.41-35.502,18.41c-19.607,0-35.502-8.244-35.502-18.41
	v-6.793L1.859,35.673c-1.513-0.771-1.513-2.021,0-2.792L63.747,1.337c1.512-0.77,3.965-0.77,5.475,0l61.888,31.542
	C132.62,33.651,132.62,34.902,131.111,35.673z"/>
<path fill="#C03D2B" d="M66.484,36.271c15.983-0.008,28.939,5.875,28.944,13.138c0.002,7.265-12.95,13.158-28.935,13.165
	c-15.982,0.009-28.941-5.875-28.943-13.14C37.549,42.173,50.503,36.279,66.484,36.271z"/>
<path fill="#394C5F" d="M99.359,57.331c0.007-4.042-3.202-8.088-9.631-11.177c-12.84-6.165-33.657-6.165-46.5,0
	c-6.381,3.065-9.584,7.076-9.623,11.092V38.983c-0.041-4.066,3.163-8.138,9.623-11.239c12.841-6.166,33.66-6.166,46.5,0
	c6.429,3.087,9.638,7.133,9.631,11.177h0.005v18.413h-0.005V57.331z"/>
<path fill="#3E556B" d="M99.394,39.92v16.369c-0.499-3.692-3.653-7.314-9.528-10.136c-6.454-3.098-14.922-4.637-23.381-4.622V23.12
	c8.459-0.017,16.927,1.522,23.381,4.616C96.831,31.079,99.986,35.549,99.394,39.92z"/>
<path fill="#E54F3C" d="M39.816,48.107c1.024,0.686,2.14,1.345,3.418,1.96c12.84,6.162,33.66,6.162,46.501,0
	c1.281-0.615,2.395-1.276,3.419-1.96c9.26,6.172,8.139,14.82-3.419,20.371c-12.842,6.167-33.661,6.167-46.501,0
	C31.673,62.928,30.558,54.277,39.816,48.107z"/>
<path opacity="0.5" fill="#C03D2B" enable-background="new    " d="M66.484,54.691c-8.414,0-16.83-1.543-23.249-4.625
	c-1.28-0.614-2.395-1.275-3.418-1.959c-9.258,6.17-8.143,14.818,3.418,20.368c6.421,3.083,14.835,4.625,23.249,4.625V54.691z"/>
<path fill="none" stroke="#394C5F" stroke-width="3" stroke-miterlimit="10" d="M125.662,32.324c0,0,0.923,32.854-19.91,53.751"/>
<path fill="#2F4152" d="M120.408,77.224c0-3.635-2.937-6.579-6.559-6.579c-3.624,0-6.561,2.944-6.561,6.579
	c0,0.376,0.052,0.739,0.109,1.1c-2.411,2.125-8.219,6.596-14.593,6.778c0.152,10.038,11.066,12.983,11.066,12.983
	s7.815-6.797,10.492-14.332C117.743,83.484,120.408,80.684,120.408,77.224z"/>
</svg>
