<?xml version="1.0" encoding="utf-8"?>
<!-- Generator: Adobe Illustrator 14.0.0, SVG Export Plug-In . SVG Version: 6.00 Build 43363)  -->
<!DOCTYPE svg PUBLIC "-//W3C//DTD SVG 1.1//EN" "http://www.w3.org/Graphics/SVG/1.1/DTD/svg11.dtd">
<svg version="1.1" id="Layer_1" xmlns="http://www.w3.org/2000/svg" xmlns:xlink="http://www.w3.org/1999/xlink" x="0px" y="0px"
	 width="100px" height="100px" viewBox="0 0 100 100" enable-background="new 0 0 100 100" xml:space="preserve">
<path fill="#EBEEEF" d="M101.021,60.36c0,0-0.012-1.206-2.053-2.033c-8.68-4.305-42.955-20.805-42.955-20.805
	c-1.25-0.625-2.262-0.625-3.514,0c0,0-41.294,20.265-50.973,25.013c-2.04,0.648-2.011,2.002-2.011,2.002
	c-0.021,0.008-0.02,9.118,0,9.114c0,0,0.035,1.232,2.051,1.938c8.673,3.901,42.894,19.854,42.894,19.854
	c1.249,0.623,2.262,0.623,3.512,0c0,0,41.166-19.642,50.972-24.08c1.977-0.675,2.076-1.954,2.076-1.954
	C101.045,69.422,101.054,60.367,101.021,60.36L101.021,60.36z"/>
<path fill="#384B5E" d="M30.468,61.15c4.754-2.381,12.458-2.381,17.212,0c4.754,2.379,4.754,6.238,0,8.614
	c-4.754,2.381-12.458,2.381-17.212,0C25.716,67.387,25.716,63.529,30.468,61.15z"/>
<path fill="#384B5E" d="M53.81,51.002c4.755-2.38,12.458-2.38,17.213,0c4.754,2.379,4.754,6.238,0,8.615
	c-4.753,2.379-12.458,2.379-17.213,0C49.058,57.238,49.058,53.381,53.81,51.002z"/>
<path fill="#C03C2C" d="M55.967,49.544c3.566-1.783,9.344-1.783,12.91,0c1.648,0.826,2.534-0.14,2.656,0.942
	c0.02,0.163,0.021,3.372,0.005,3.534c-0.107,1.092-0.994,2.167-2.661,3.001c-3.566,1.784-9.344,1.784-12.91,0
	c-1.623-0.812-2.507-1.853-2.652-2.913c-0.021-0.159-0.025-3.361-0.016-3.52C53.374,49.471,54.264,50.396,55.967,49.544z"/>
<path fill="#E54E3C" d="M55.967,47.514c3.566-1.783,9.344-1.783,12.91,0c3.563,1.784,3.563,4.677,0,6.463
	c-3.566,1.783-9.344,1.783-12.91,0C52.4,52.19,52.4,49.298,55.967,47.514z"/>
<path fill="#95A5A6" d="M32.624,59.692c3.566-1.784,9.344-1.784,12.91,0c3.565,1.784,3.565,5.692,0,7.477
	c-3.565,1.784-9.344,1.784-12.91,0C29.058,65.385,29.058,61.476,32.624,59.692z"/>
<path fill="#384B5E" d="M35.031,24.872v37.552c0,1.119,1.817,2.029,4.06,2.029c2.242,0,4.06-0.91,4.06-2.029V24.872H35.031z"/>
<path fill="#2E4051" d="M35.031,31.412c1.293,0.358,2.651,0.564,4.06,0.564c1.408,0,2.766-0.208,4.06-0.564v-6.539h-8.119V31.412z"
	/>
<path fill="#E54E3C" d="M39.09-0.5c8.407,0,15.223,6.815,15.223,15.223c0,8.407-6.816,15.224-15.223,15.224
	c-8.408,0-15.223-6.816-15.223-15.223C23.868,6.315,30.683-0.5,39.09-0.5z"/>
<path fill="#C03C2C" d="M26.912,11.679c0-3.426,1.146-6.577,3.058-9.122c-3.698,2.778-6.102,7.186-6.102,12.167
	c0,8.407,6.815,15.223,15.223,15.223c4.981,0,9.39-2.403,12.166-6.101c-2.543,1.911-5.694,3.057-9.121,3.057
	C33.728,26.902,26.912,20.086,26.912,11.679z"/>
<path fill="#BDC3C7" d="M101.021,69.411c0,0-0.102,1.278-2.078,1.955c-9.804,4.436-50.972,24.078-50.972,24.078
	c-1.25,0.624-2.262,0.624-3.513,0c0,0-34.22-15.953-42.894-19.853c-2.017-0.706-2.051-1.938-2.051-1.938
	c-0.006,0-0.01-0.869-0.012-2.069c-0.005,2.681-0.001,7.146,0.012,7.145c0,0,0.035,1.232,2.051,1.938
	c8.675,3.9,42.896,19.852,42.896,19.852c1.25,0.623,2.263,0.623,3.513,0c0,0,41.167-19.641,50.972-24.08
	c1.976-0.675,2.076-1.954,2.076-1.954c0.021,0.009,0.025-4.715,0.021-7.339C101.034,68.445,101.029,69.416,101.021,69.411z"/>
<path fill="#D4D7DA" d="M101.018,60.308c-0.021,0.15-0.229,1.29-2.072,1.925C89.142,66.667,47.974,86.31,47.974,86.31
	c-1.25,0.626-2.262,0.626-3.512,0c0,0-34.22-15.951-42.894-19.853c-1.988-0.693-2.05-1.896-2.051-1.931v0.013
	c-0.021,0.006-0.02,9.119,0,9.114c0,0,0.035,1.232,2.051,1.938c8.673,3.899,42.894,19.853,42.894,19.853
	c1.249,0.623,2.262,0.623,3.512,0c0,0,41.166-19.642,50.972-24.08c1.977-0.675,2.076-1.954,2.076-1.954
	c0.023,0.012,0.032-9.044,0-9.05L101.018,60.308z"/>
<path fill="#BDC3C7" d="M44.461,86.31c0,0-34.22-15.951-42.894-19.853c-1.988-0.696-2.05-1.896-2.051-1.931v0.013
	c-0.021,0.01-0.02,9.119,0,9.114c0,0,0.035,1.232,2.051,1.938c8.673,3.899,42.894,19.853,42.894,19.853
	c0.624,0.312,1.19,0.468,1.755,0.468v-9.135C45.651,86.777,45.085,86.623,44.461,86.31z"/>
<path fill="#95A5A6" d="M44.461,95.444c0,0-34.22-15.953-42.894-19.853c-2.017-0.706-2.051-1.938-2.051-1.938
	c-0.006,0-0.01-0.867-0.012-2.069c-0.006,2.681-0.001,7.146,0.012,7.145c0,0,0.035,1.232,2.051,1.938
	c8.673,3.9,42.894,19.852,42.894,19.852c0.625,0.313,1.19,0.468,1.755,0.468v-5.074C45.651,95.912,45.085,95.756,44.461,95.444z"/>
</svg>
